<?xml version="1.0" encoding="utf-8"?>
<!-- Generator: Adobe Illustrator 28.3.0, SVG Export Plug-In . SVG Version: 6.00 Build 0)  -->
<svg version="1.1" id="Layer_1" xmlns="http://www.w3.org/2000/svg" xmlns:xlink="http://www.w3.org/1999/xlink" x="0px" y="0px"
	 viewBox="0 0 995 214" style="enable-background:new 0 0 995 214;" xml:space="preserve">
<style type="text/css">
	.st0{fill:#FFFFFF;}
	.st1{fill:#38BDF8;}
</style>
<g>
	<path class="st0" d="M316.48,149.91c7.42,0,14.44-2.61,14.44-10.83c0-9.62-9.43-11.83-26.27-15.04
		c-31.68-6.02-51.14-17.24-51.14-45.93c0-30.28,31.28-43.32,58.15-43.32c30.08,0,59.56,12.63,61.77,54.34h-34.89
		c-1-16.85-11.43-23.67-28.67-23.67c-10.03,0-20.66,5.01-20.66,13.43s6.61,14.04,26.67,18.05c33.09,6.61,51.54,16.04,51.54,42.12
		c0,27.48-23.26,40.11-52.75,40.11c-33.89,0-54.34-19.85-56.15-48.13h35.49C294.62,143.09,303.64,149.91,316.48,149.91
		L316.48,149.91z M420.03,67.7v24.87h59.96v28.28h-59.96v25.46h66.78v30.88H384.54V36.81h102.27V67.7H420.03z M603.46,145.5v31.68
		H500.18V36.81h35.9V145.5L603.46,145.5L603.46,145.5z M651.36,67.7v24.87h59.96v28.28h-59.96v25.46h66.78v30.88H615.86V36.81
		h102.27V67.7H651.36z M796.83,179.2c-45.12,0-70.99-28.47-70.99-71.99s26.07-72.4,69.79-72.4c39.3,0,62.37,22.86,66.18,54.15h-35.9
		c-2.41-14.64-11.83-23.46-29.48-23.46c-22.66,0-34.5,15.84-34.5,41.32c0,27.27,12.83,43.11,35.1,43.11s28.47-15.24,30.48-29.48
		h35.9C860.41,160.14,834.33,179.19,796.83,179.2L796.83,179.2z M989.62,67.7H946.5v109.5h-36.09V67.7h-42.91V36.81h122.12V67.7
		L989.62,67.7z"/>
	<path class="st1" d="M188.6,6.4H55.69c-27.78,0-50.31,22.51-50.31,50.3l0,0C5.38,84.48,27.91,107,55.69,107H5.38v100.6h132.91
		c27.78,0,50.31-22.52,50.31-50.31l0,0c0-27.78-22.52-50.31-50.31-50.31h50.31V6.4z"/>
</g>
</svg>
